# xmcd
#
# Track frame offsets: 
#        150
#        22470
#        55436
#        75246
#        104006
#        131889
#        149313
#        171351
#        191959
#
# Disc length: 2866 seconds
#
# Revision: 0
# Processed by: cddbd v1.5.2PL0 Copyright (c) Steve Scherf et al.
# Submitted via: ExactAudioCopy v0.99pb5
#
DISCID=8c0b3009
DTITLE=Khalif Wailin Walter - Let me say that again
DYEAR=2006
DGENRE=Blues
TTITLE0=Keep on lovin' me baby
TTITLE1=My baby calls me coffee
TTITLE2=Crosscut saw
TTITLE3=It's my own fault
TTITLE4=Heart fixin business
TTITLE5=Connie-Lee
TTITLE6=Hideaway
TTITLE7=You don't have to go
TTITLE8=I'm a king bee
EXTD=
EXTT0=
EXTT1=
EXTT2=
EXTT3=
EXTT4=
EXTT5=
EXTT6=
EXTT7=
EXTT8=
PLAYORDER=
